<svg width="188" height="52" viewBox="0 0 188 52" fill="none" xmlns="http://www.w3.org/2000/svg">
<rect x="0.5" width="187" height="52" rx="26" fill="#FDDCC4"/>
<path d="M55.7681 28.4971L55.519 32H46.3135V31.4106C46.4463 31.3996 46.6372 31.3802 46.8862 31.3525C47.1408 31.3249 47.3179 31.2889 47.4175 31.2446C47.5835 31.1727 47.7025 31.0675 47.7744 30.9292C47.8519 30.7909 47.8906 30.6138 47.8906 30.3979V21.9644C47.8906 21.7762 47.8574 21.6102 47.791 21.4663C47.7301 21.3224 47.6056 21.2062 47.4175 21.1177C47.2902 21.0513 47.1104 20.9876 46.8779 20.9268C46.651 20.8604 46.4629 20.8216 46.3135 20.8105V20.2212H51.2856V20.8105C51.1307 20.8161 50.9287 20.8438 50.6797 20.8936C50.4362 20.9434 50.2591 20.9876 50.1484 21.0264C49.9603 21.0928 49.8302 21.2062 49.7583 21.3667C49.6919 21.5272 49.6587 21.6987 49.6587 21.8813V29.792C49.6587 30.1572 49.6753 30.4422 49.7085 30.647C49.7472 30.8462 49.833 31.0011 49.9658 31.1118C50.0931 31.2114 50.2812 31.2778 50.5303 31.311C50.7848 31.3387 51.139 31.3525 51.5928 31.3525C51.7975 31.3525 52.0106 31.347 52.2319 31.3359C52.4533 31.3249 52.6636 31.3027 52.8628 31.2695C53.0565 31.2363 53.2336 31.1921 53.394 31.1367C53.5601 31.0758 53.6818 31.0011 53.7593 30.9126C53.9862 30.658 54.249 30.2734 54.5479 29.7588C54.8522 29.2386 55.0625 28.818 55.1787 28.4971H55.7681ZM64.6489 30.0742C64.3058 30.7272 63.8465 31.2474 63.271 31.6348C62.6955 32.0221 62.0342 32.2158 61.2871 32.2158C60.6286 32.2158 60.0503 32.0996 59.5522 31.8672C59.0597 31.6348 58.653 31.3193 58.332 30.9209C58.011 30.5225 57.7703 30.0576 57.6098 29.5264C57.4549 28.9951 57.3774 28.4334 57.3774 27.8413C57.3774 27.3101 57.4604 26.7899 57.6264 26.2808C57.798 25.7661 58.047 25.304 58.3735 24.8945C58.6889 24.5016 59.0791 24.1862 59.5439 23.9482C60.0143 23.7048 60.54 23.583 61.1211 23.583C61.7187 23.583 62.2306 23.6771 62.6567 23.8652C63.0828 24.0534 63.4287 24.3107 63.6943 24.6372C63.9489 24.9471 64.137 25.3123 64.2588 25.7329C64.386 26.1535 64.4497 26.61 64.4497 27.1025V27.6504H59.0293C59.0293 28.1872 59.0791 28.6742 59.1787 29.1113C59.2838 29.5485 59.4471 29.9331 59.6684 30.2651C59.8843 30.5861 60.1665 30.8407 60.5151 31.0288C60.8638 31.2114 61.2788 31.3027 61.7602 31.3027C62.2527 31.3027 62.6761 31.1893 63.0303 30.9624C63.39 30.73 63.7358 30.3149 64.0679 29.7173L64.6489 30.0742ZM62.8144 26.9531C62.8144 26.6432 62.7868 26.3112 62.7314 25.957C62.6816 25.6029 62.5986 25.3068 62.4824 25.0688C62.3551 24.8143 62.1808 24.6068 61.9595 24.4463C61.7381 24.2858 61.4531 24.2056 61.1045 24.2056C60.5234 24.2056 60.0392 24.4491 59.6518 24.936C59.27 25.4175 59.0625 26.0898 59.0293 26.9531H62.8144ZM74.3681 31.8506C74.108 31.9447 73.8784 32.0194 73.6792 32.0747C73.4855 32.1356 73.2641 32.166 73.0151 32.166C72.5835 32.166 72.2376 32.0664 71.9775 31.8672C71.7229 31.6624 71.5597 31.3664 71.4878 30.979H71.438C71.0782 31.3774 70.6909 31.6818 70.2758 31.8921C69.8663 32.1024 69.3711 32.2075 68.79 32.2075C68.1757 32.2075 67.6694 32.0194 67.271 31.6431C66.8781 31.2668 66.6816 30.7743 66.6816 30.1655C66.6816 29.8501 66.7259 29.5679 66.8144 29.3188C66.903 29.0698 67.0358 28.8457 67.2129 28.6465C67.3512 28.4805 67.5338 28.3338 67.7607 28.2065C67.9876 28.0737 68.2006 27.9686 68.3999 27.8911C68.6489 27.797 69.1525 27.6227 69.9106 27.3682C70.6743 27.1136 71.1889 26.9144 71.4546 26.7705V25.9487C71.4546 25.8768 71.438 25.7384 71.4047 25.5337C71.3771 25.3289 71.3134 25.1353 71.2138 24.9526C71.1032 24.7479 70.9454 24.5708 70.7407 24.4214C70.5415 24.2664 70.2565 24.189 69.8857 24.189C69.6311 24.189 69.3932 24.2332 69.1718 24.3218C68.956 24.4048 68.8038 24.4933 68.7153 24.5874C68.7153 24.6981 68.7402 24.8613 68.79 25.0771C68.8453 25.293 68.873 25.4922 68.873 25.6748C68.873 25.8685 68.7845 26.0456 68.6074 26.2061C68.4358 26.3665 68.1951 26.4468 67.8852 26.4468C67.6085 26.4468 67.4038 26.3499 67.271 26.1562C67.1437 25.957 67.08 25.7357 67.08 25.4922C67.08 25.2376 67.1686 24.9941 67.3457 24.7617C67.5283 24.5293 67.7635 24.3218 68.0512 24.1392C68.3003 23.9842 68.6018 23.8542 68.956 23.749C69.3102 23.6383 69.656 23.583 69.9936 23.583C70.4585 23.583 70.8624 23.6162 71.2055 23.6826C71.5542 23.7435 71.8696 23.8791 72.1518 24.0894C72.434 24.2941 72.6471 24.5736 72.791 24.9277C72.9404 25.2764 73.0151 25.7274 73.0151 26.2808C73.0151 27.0721 73.0068 27.7749 72.9902 28.3892C72.9736 28.9979 72.9653 29.6647 72.9653 30.3896C72.9653 30.6055 73.0013 30.777 73.0732 30.9043C73.1507 31.0316 73.2669 31.1395 73.4218 31.228C73.5048 31.2778 73.6349 31.3055 73.812 31.311C73.9946 31.3166 74.18 31.3193 74.3681 31.3193V31.8506ZM71.4712 27.4678C71.0008 27.6061 70.5885 27.7417 70.2343 27.8745C69.8802 28.0073 69.5509 28.1733 69.2465 28.3726C68.9699 28.5607 68.7513 28.7848 68.5908 29.0449C68.4303 29.2995 68.3501 29.6038 68.3501 29.958C68.3501 30.4173 68.469 30.7549 68.707 30.9707C68.9505 31.1865 69.2576 31.2944 69.6284 31.2944C70.0213 31.2944 70.3671 31.2004 70.666 31.0122C70.9648 30.8185 71.2166 30.5916 71.4213 30.3315L71.4712 27.4678ZM82.4687 24.8696C82.4687 25.1519 82.3995 25.4036 82.2612 25.625C82.1228 25.8408 81.9098 25.9487 81.622 25.9487C81.3121 25.9487 81.0742 25.8685 80.9081 25.708C80.7477 25.5475 80.6674 25.3704 80.6674 25.1768C80.6674 25.055 80.6757 24.9443 80.6923 24.8447C80.7145 24.7451 80.7338 24.6455 80.7504 24.5459C80.4903 24.5459 80.186 24.651 79.8373 24.8613C79.4887 25.0716 79.1926 25.3704 78.9492 25.7578V30.5225C78.9492 30.7161 78.9851 30.8739 79.0571 30.9956C79.1345 31.1174 79.2535 31.2087 79.414 31.2695C79.5523 31.3249 79.7294 31.3664 79.9453 31.394C80.1666 31.4217 80.3575 31.4411 80.518 31.4521V32H76.2016V31.4521C76.3289 31.4411 76.4589 31.43 76.5917 31.4189C76.7301 31.4079 76.8491 31.3857 76.9487 31.3525C77.1036 31.3027 77.2171 31.217 77.289 31.0952C77.3665 30.9679 77.4052 30.8047 77.4052 30.6055V25.5503C77.4052 25.3787 77.3637 25.21 77.2807 25.0439C77.2032 24.8779 77.0926 24.7451 76.9487 24.6455C76.8435 24.5791 76.719 24.5321 76.5751 24.5044C76.4313 24.4712 76.2763 24.4491 76.1103 24.438V23.8984L78.8329 23.7158L78.9492 23.832V24.9858H78.9907C79.3338 24.5376 79.7156 24.1973 80.1362 23.9648C80.5567 23.7324 80.9413 23.6162 81.29 23.6162C81.6386 23.6162 81.9208 23.7297 82.1367 23.9565C82.358 24.1834 82.4687 24.4878 82.4687 24.8696ZM93.2338 32H89.2245V31.4521C89.3518 31.4411 89.4902 31.43 89.6396 31.4189C89.7945 31.4079 89.9218 31.3857 90.0214 31.3525C90.1764 31.3027 90.2898 31.217 90.3617 31.0952C90.4392 30.9679 90.478 30.8047 90.478 30.6055V26.397C90.478 25.8159 90.3396 25.3677 90.0629 25.0522C89.7918 24.7368 89.4597 24.5791 89.0668 24.5791C88.7735 24.5791 88.5051 24.6261 88.2616 24.7202C88.0182 24.8088 87.8023 24.9194 87.6142 25.0522C87.4316 25.1795 87.2849 25.3179 87.1742 25.4673C87.0691 25.6112 86.9916 25.7274 86.9418 25.8159V30.5225C86.9418 30.7106 86.9806 30.8656 87.058 30.9873C87.1355 31.109 87.2517 31.2031 87.4067 31.2695C87.5229 31.3249 87.6474 31.3664 87.7802 31.394C87.9185 31.4217 88.0597 31.4411 88.2035 31.4521V32H84.1943V31.4521C84.3215 31.4411 84.4516 31.43 84.5844 31.4189C84.7227 31.4079 84.8417 31.3857 84.9413 31.3525C85.0963 31.3027 85.2097 31.217 85.2817 31.0952C85.3591 30.9679 85.3979 30.8047 85.3979 30.6055V25.5503C85.3979 25.3621 85.3564 25.1906 85.2734 25.0356C85.1959 24.8752 85.0852 24.7451 84.9413 24.6455C84.8362 24.5791 84.7117 24.5321 84.5678 24.5044C84.4239 24.4712 84.269 24.4491 84.103 24.438V23.8984L86.8256 23.7158L86.9418 23.832V24.9858H86.9833C87.1161 24.853 87.2822 24.6953 87.4814 24.5127C87.6806 24.3245 87.8687 24.1724 88.0458 24.0562C88.2506 23.9233 88.4941 23.8127 88.7763 23.7241C89.0585 23.6356 89.3767 23.5913 89.7309 23.5913C90.5167 23.5913 91.0977 23.8376 91.474 24.3301C91.8559 24.8171 92.0468 25.4673 92.0468 26.2808V30.5391C92.0468 30.7327 92.08 30.8905 92.1464 31.0122C92.2128 31.1284 92.3263 31.2197 92.4867 31.2861C92.6196 31.3415 92.733 31.3802 92.8271 31.4023C92.9267 31.4245 93.0623 31.4411 93.2338 31.4521V32ZM114.399 32H110.406V31.4521C110.533 31.4411 110.661 31.43 110.788 31.4189C110.921 31.4079 111.037 31.3857 111.137 31.3525C111.292 31.3027 111.405 31.217 111.477 31.0952C111.554 30.9679 111.593 30.8047 111.593 30.6055V26.3804C111.593 25.8049 111.46 25.3621 111.195 25.0522C110.935 24.7368 110.608 24.5791 110.215 24.5791C109.944 24.5791 109.689 24.6206 109.452 24.7036C109.214 24.7866 108.995 24.9028 108.796 25.0522C108.635 25.174 108.5 25.3068 108.389 25.4507C108.284 25.589 108.204 25.7052 108.148 25.7993V30.5225C108.148 30.7161 108.182 30.8766 108.248 31.0039C108.314 31.1257 108.428 31.2197 108.588 31.2861C108.716 31.3359 108.829 31.3747 108.929 31.4023C109.034 31.4245 109.169 31.4411 109.335 31.4521V32H105.426V31.4521C105.553 31.4411 105.675 31.43 105.791 31.4189C105.913 31.4079 106.023 31.3857 106.123 31.3525C106.278 31.3027 106.391 31.217 106.463 31.0952C106.541 30.9679 106.579 30.8047 106.579 30.6055V26.3804C106.579 25.8049 106.447 25.3621 106.181 25.0522C105.921 24.7368 105.594 24.5791 105.202 24.5791C104.93 24.5791 104.676 24.6234 104.438 24.7119C104.2 24.7949 103.981 24.9111 103.782 25.0605C103.622 25.1823 103.486 25.3206 103.375 25.4756C103.265 25.625 103.182 25.7384 103.126 25.8159V30.5059C103.126 30.694 103.165 30.8517 103.243 30.979C103.32 31.1063 103.436 31.2031 103.591 31.2695C103.707 31.3249 103.826 31.3664 103.948 31.394C104.07 31.4217 104.205 31.4411 104.355 31.4521V32H100.379V31.4521C100.506 31.4411 100.636 31.43 100.769 31.4189C100.907 31.4079 101.026 31.3857 101.126 31.3525C101.281 31.3027 101.394 31.217 101.466 31.0952C101.544 30.9679 101.582 30.8047 101.582 30.6055V25.5171C101.582 25.34 101.541 25.1823 101.458 25.0439C101.38 24.9001 101.27 24.7783 101.126 24.6787C101.021 24.6123 100.891 24.5597 100.736 24.521C100.581 24.4767 100.42 24.4491 100.254 24.438V23.8984L102.994 23.7158L103.11 23.832V25.0024H103.168C103.306 24.8641 103.475 24.7008 103.674 24.5127C103.873 24.3245 104.059 24.1724 104.23 24.0562C104.424 23.9233 104.665 23.8127 104.953 23.7241C105.246 23.6356 105.561 23.5913 105.899 23.5913C106.43 23.5913 106.887 23.7352 107.268 24.0229C107.65 24.3052 107.924 24.6483 108.09 25.0522C108.289 24.8586 108.464 24.6898 108.613 24.5459C108.768 24.3965 108.97 24.2388 109.219 24.0728C109.429 23.9289 109.676 23.8127 109.958 23.7241C110.246 23.6356 110.564 23.5913 110.912 23.5913C111.604 23.5913 112.152 23.8182 112.556 24.272C112.96 24.7257 113.162 25.423 113.162 26.3638V30.5225C113.162 30.7161 113.195 30.8766 113.262 31.0039C113.328 31.1257 113.441 31.2197 113.602 31.2861C113.729 31.3359 113.854 31.3747 113.975 31.4023C114.103 31.4245 114.244 31.4411 114.399 31.4521V32ZM124.35 27.8247C124.35 28.4002 124.259 28.9674 124.077 29.5264C123.894 30.0798 123.634 30.5501 123.296 30.9375C122.914 31.3802 122.472 31.7095 121.968 31.9253C121.465 32.1411 120.9 32.249 120.275 32.249C119.755 32.249 119.259 32.1522 118.789 31.9585C118.319 31.7593 117.901 31.4715 117.536 31.0952C117.176 30.7244 116.888 30.2734 116.672 29.7422C116.462 29.2054 116.357 28.605 116.357 27.9409C116.357 26.6626 116.728 25.6167 117.469 24.8032C118.216 23.9897 119.193 23.583 120.399 23.583C121.545 23.583 122.488 23.9704 123.23 24.7451C123.977 25.5143 124.35 26.5409 124.35 27.8247ZM122.632 27.8413C122.632 27.4263 122.591 26.9891 122.508 26.5298C122.425 26.0649 122.3 25.672 122.134 25.3511C121.957 25.008 121.725 24.734 121.437 24.5293C121.149 24.319 120.798 24.2139 120.383 24.2139C119.957 24.2139 119.591 24.319 119.287 24.5293C118.988 24.7396 118.745 25.0273 118.557 25.3926C118.379 25.7301 118.255 26.1147 118.183 26.5464C118.111 26.978 118.075 27.3958 118.075 27.7998C118.075 28.3311 118.117 28.8236 118.2 29.2773C118.288 29.7256 118.426 30.1268 118.615 30.481C118.803 30.8351 119.038 31.1146 119.32 31.3193C119.608 31.5186 119.962 31.6182 120.383 31.6182C121.074 31.6182 121.622 31.2834 122.026 30.6138C122.43 29.9442 122.632 29.02 122.632 27.8413ZM132.825 24.8696C132.825 25.1519 132.755 25.4036 132.617 25.625C132.479 25.8408 132.266 25.9487 131.978 25.9487C131.668 25.9487 131.43 25.8685 131.264 25.708C131.104 25.5475 131.023 25.3704 131.023 25.1768C131.023 25.055 131.032 24.9443 131.048 24.8447C131.07 24.7451 131.09 24.6455 131.106 24.5459C130.846 24.5459 130.542 24.651 130.193 24.8613C129.845 25.0716 129.549 25.3704 129.305 25.7578V30.5225C129.305 30.7161 129.341 30.8739 129.413 30.9956C129.49 31.1174 129.609 31.2087 129.77 31.2695C129.908 31.3249 130.085 31.3664 130.301 31.394C130.522 31.4217 130.713 31.4411 130.874 31.4521V32H126.557V31.4521C126.685 31.4411 126.815 31.43 126.948 31.4189C127.086 31.4079 127.205 31.3857 127.305 31.3525C127.459 31.3027 127.573 31.217 127.645 31.0952C127.722 30.9679 127.761 30.8047 127.761 30.6055V25.5503C127.761 25.3787 127.72 25.21 127.637 25.0439C127.559 24.8779 127.448 24.7451 127.305 24.6455C127.199 24.5791 127.075 24.5321 126.931 24.5044C126.787 24.4712 126.632 24.4491 126.466 24.438V23.8984L129.189 23.7158L129.305 23.832V24.9858H129.347C129.69 24.5376 130.071 24.1973 130.492 23.9648C130.913 23.7324 131.297 23.6162 131.646 23.6162C131.994 23.6162 132.277 23.7297 132.493 23.9565C132.714 24.1834 132.825 24.4878 132.825 24.8696ZM141.822 30.0742C141.479 30.7272 141.019 31.2474 140.444 31.6348C139.868 32.0221 139.207 32.2158 138.46 32.2158C137.801 32.2158 137.223 32.0996 136.725 31.8672C136.232 31.6348 135.826 31.3193 135.505 30.9209C135.184 30.5225 134.943 30.0576 134.783 29.5264C134.628 28.9951 134.55 28.4334 134.55 27.8413C134.55 27.3101 134.633 26.7899 134.799 26.2808C134.971 25.7661 135.22 25.304 135.546 24.8945C135.862 24.5016 136.252 24.1862 136.717 23.9482C137.187 23.7048 137.713 23.583 138.294 23.583C138.891 23.583 139.403 23.6771 139.829 23.8652C140.256 24.0534 140.601 24.3107 140.867 24.6372C141.122 24.9471 141.31 25.3123 141.431 25.7329C141.559 26.1535 141.622 26.61 141.622 27.1025V27.6504H136.202C136.202 28.1872 136.252 28.6742 136.351 29.1113C136.457 29.5485 136.62 29.9331 136.841 30.2651C137.057 30.5861 137.339 30.8407 137.688 31.0288C138.036 31.2114 138.451 31.3027 138.933 31.3027C139.425 31.3027 139.849 31.1893 140.203 30.9624C140.563 30.73 140.909 30.3149 141.241 29.7173L141.822 30.0742ZM139.987 26.9531C139.987 26.6432 139.959 26.3112 139.904 25.957C139.854 25.6029 139.771 25.3068 139.655 25.0688C139.528 24.8143 139.354 24.6068 139.132 24.4463C138.911 24.2858 138.626 24.2056 138.277 24.2056C137.696 24.2056 137.212 24.4491 136.825 24.936C136.443 25.4175 136.235 26.0898 136.202 26.9531H139.987Z" fill="#292929"/>
</svg>
